<?xml version="1.0" encoding="UTF-8"?>
<svg version="1.1" xmlns="http://www.w3.org/2000/svg" width="577" height="402">
<path d="M0 0 C0.99 0 1.98 0 3 0 C4.78947373 2.21266009 6.39962126 4.40611373 8 6.75 C12.17474949 12.68589445 16.59538998 18.10738518 21.64648438 23.31738281 C25 26.81083284 25 26.81083284 25 29 C25.66 29 26.32 29 27 29 C27 29.66 27 30.32 27 31 C27.83144531 31.33451172 27.83144531 31.33451172 28.6796875 31.67578125 C31.71624805 33.40876782 33.72348749 35.64945835 36.125 38.1875 C40.34989484 42.56121417 44.67467624 46.15782275 49.80859375 49.46484375 C52 51 52 51 53.7890625 52.875 C56.8565074 55.82321559 60.30428563 57.87241239 63.9375 60.0625 C64.72020264 60.5363916 65.50290527 61.0102832 66.30932617 61.49853516 C78.64213483 68.86883628 91.20967981 75.84199821 104.75390625 80.703125 C129.3464421 90.52830178 152.66085724 108.68506996 163.48046875 133.37890625 C167 142.20238095 167 142.20238095 167 147 C167.66 146.67 168.32 146.34 169 146 C172.70228154 145.73023782 176.41400413 145.76832591 180.125 145.75 C181.1459375 145.729375 182.166875 145.70875 183.21875 145.6875 C190.88885032 145.64806504 196.88009748 146.28704129 202.875 151.5 C206.59898533 155.88115921 207.39954072 158.21081371 207.24609375 163.7890625 C206.73281239 168.40044743 204.33140363 170.82467176 200.9375 173.6875 C199.968125 174.450625 198.99875 175.21375 198 176 C197.34 176.66 196.68 177.32 196 178 C196.94875 178.680625 197.8975 179.36125 198.875 180.0625 C202.33458053 182.97410914 203.3092754 185.47191653 204 190 C203.89644137 196.52419371 202.13622119 200.9396095 198 206 C189.33051683 213.63740184 177.3527519 213.43239585 166.4375 213.25 C165.16841797 213.24484375 163.89933594 213.2396875 162.59179688 213.234375 C153.3101745 213.15508725 153.3101745 213.15508725 151 212 C151.70236237 208.10306732 152.41233553 204.20756151 153.125 200.3125 C153.34365723 199.11471924 153.56231445 197.91693848 153.78759766 196.68286133 C155.00690401 190.08775547 156.29092651 183.51703023 157.703125 176.9609375 C157.84293793 176.30741806 157.98275085 175.65389862 158.12680054 174.98057556 C158.80659085 171.80775107 159.49806263 168.63826535 160.20751953 165.47192383 C160.45614746 164.31974365 160.70477539 163.16756348 160.9609375 161.98046875 C161.18571777 160.96879639 161.41049805 159.95712402 161.64208984 158.91479492 C162.55756321 151.45924476 159.52783248 145.39033326 155.1796875 139.55859375 C153.93326798 137.9866922 152.67119041 136.42702373 151.390625 134.8828125 C150 133 150 133 150 131 C149.34 131 148.68 131 148 131 C147.67 129.68 147.34 128.36 147 127 C146.34 127 145.68 127 145 127 C145 126.34 145 125.68 145 125 C144.42765625 124.731875 143.8553125 124.46375 143.265625 124.1875 C140.92115366 122.95867364 138.87595062 121.57477824 136.75 120 C136.04359375 119.484375 135.3371875 118.96875 134.609375 118.4375 C134.07828125 117.963125 133.5471875 117.48875 133 117 C133 116.34 133 115.68 133 115 C132.236875 114.79375 131.47375 114.5875 130.6875 114.375 C127.5724134 113.21344229 125.03152279 111.94827915 122.16015625 110.31640625 C116.13017753 106.99296086 109.93056979 104.16322133 103.63146973 101.39086914 C101.06406303 100.26049726 98.50163536 99.11904105 95.93890381 97.9781189 C94.67759734 97.41663473 93.41608536 96.85561199 92.15435791 96.29507446 C82.23866227 91.8888954 72.38550163 87.46681281 63 82 C61.94039063 81.40832031 60.88078125 80.81664062 59.7890625 80.20703125 C58.13003906 79.26923828 58.13003906 79.26923828 56.4375 78.3125 C55.40496094 77.73113281 54.37242187 77.14976562 53.30859375 76.55078125 C52.54675781 76.03902344 51.78492188 75.52726562 51 75 C51 74.34 51 73.68 51 73 C50.26007813 72.73316406 49.52015625 72.46632813 48.7578125 72.19140625 C46.05498832 71.02375558 44.15933103 69.77451906 41.875 67.9375 C41.11058594 67.32390625 40.34617188 66.7103125 39.55859375 66.078125 C38.71425781 65.39234375 37.86992188 64.7065625 37 64 C36.00097656 63.21109375 35.00195312 62.4221875 33.97265625 61.609375 C32.47025391 60.41054687 32.47025391 60.41054687 30.9375 59.1875 C29.99777344 58.43855469 29.05804688 57.68960938 28.08984375 56.91796875 C27.40019531 56.28503906 26.71054688 55.65210938 26 55 C26 54.34 26 53.68 26 53 C24.515 52.505 24.515 52.505 23 52 C21.24609375 50.22265625 21.24609375 50.22265625 19.4375 48.0625 C17.66869432 45.96656037 15.94005112 43.94005112 14 42 C5.94986597 66.15040208 18.64582074 104.78724947 29.09570312 126.25048828 C30.54132008 128.93568801 32.11051854 131.51056222 33.78515625 134.05859375 C35 136 35 136 35 138 C35.66 138 36.32 138 37 138 C40 143.75 40 143.75 40 146 C44.95 146 49.9 146 55 146 C54.34895833 149.515625 53.69791667 153.03125 53.046875 156.546875 C52.63439848 160.07228012 52.63439848 160.07228012 54.953125 162.453125 C55.96632813 163.21882813 55.96632813 163.21882813 57 164 C57.24234375 163.40832031 57.4846875 162.81664062 57.734375 162.20703125 C60.86832155 154.81814956 63.63000501 150.30913824 71 146.796875 C75.94688492 144.82585054 80.6156728 144.78398596 85.875 144.75 C87.06029297 144.7190625 87.06029297 144.7190625 88.26953125 144.6875 C93.28948096 144.65408935 96.60073739 145.3123476 101 148 C99.25740319 157.59453303 99.25740319 157.59453303 96 161 C95.236875 160.67 94.47375 160.34 93.6875 160 C88.22821154 158.51951499 81.85452881 157.525001 76.6640625 160.20703125 C74.79247929 161.91165655 74.79247929 161.91165655 74.4921875 164.49609375 C74.77052406 167.10256199 74.77052406 167.10256199 76.7578125 168.66015625 C77.92957031 169.35431641 77.92957031 169.35431641 79.125 170.0625 C79.94871094 170.57039062 80.77242188 171.07828125 81.62109375 171.6015625 C82.40613281 172.06304687 83.19117188 172.52453125 84 173 C89.39386242 176.27862226 94.13219931 180.26439861 97 186 C97.60010513 192.39456289 97.78275737 198.58238954 94.46484375 204.25 C89.91380428 209.68697516 82.95572802 213.48192739 75.90283203 214.21923828 C73.51421881 214.34077938 71.14167744 214.37877944 68.75 214.375 C67.49062622 214.37693359 67.49062622 214.37693359 66.20581055 214.37890625 C59.84548783 214.27055112 54.58023047 213.21329467 49 210 C49.45445964 208.58208592 49.91374944 207.16571954 50.375 205.75 C50.75785156 204.56664062 50.75785156 204.56664062 51.1484375 203.359375 C51.95173667 201.13372042 52.89711662 199.09068328 54 197 C55.8253125 197.7425 55.8253125 197.7425 57.6875 198.5 C63.63679929 200.48309976 69.79249183 200.84761156 76 200 C78.38642405 198.7348398 78.38642405 198.7348398 80 197 C80 196.34 80 195.68 80 195 C77.39386794 193.18360493 74.80789863 191.92143485 71.8671875 190.71875 C67.42072662 188.831647 63.33120081 186.40647004 59.1875 183.9375 C58.0437793 183.26750977 58.0437793 183.26750977 56.87695312 182.58398438 C51.26364651 179.26364651 51.26364651 179.26364651 49 177 C48.01 179.31 47.02 181.62 46 184 C38.08 184 30.16 184 22 184 C21.67 187.3 21.34 190.6 21 194 C20.67 195.65 20.34 197.3 20 199 C28.58 199.33 37.16 199.66 46 200 C45 209 45 209 44 213 C30.14 213 16.28 213 2 213 C3.125 201.75 3.125 201.75 4.12329102 196.63232422 C4.34344376 195.49189667 4.5635965 194.35146912 4.79042053 193.17648315 C5.02587082 191.98129059 5.26132111 190.78609802 5.50390625 189.5546875 C5.7466478 188.30366241 5.98938934 187.05263733 6.23948669 185.76370239 C6.87903643 182.47192463 7.522459 179.18095442 8.16784668 175.89031982 C8.82810535 172.51867105 9.48315507 169.14601078 10.13867188 165.7734375 C11.42103454 159.18135932 12.70852109 152.5902979 14 146 C15.65 145.67 17.3 145.34 19 145 C18.56429687 144.319375 18.12859375 143.63875 17.6796875 142.9375 C12.56863003 134.61820299 9.0789607 126.23471991 6 117 C5.77570313 116.33371582 5.55140625 115.66743164 5.3203125 114.98095703 C2.48467304 106.40523268 0.41247906 97.75125919 -1.25 88.875 C-1.41322754 88.0176123 -1.57645508 87.16022461 -1.74462891 86.27685547 C-3.94018087 73.84007068 -4.16873273 61.24409057 -4.13037109 48.64819336 C-4.12501113 46.56682021 -4.13036044 44.48566358 -4.13671875 42.40429688 C-4.14442739 28.59010514 -3.85076712 14.56341543 -1 1 C-0.67 0.67 -0.34 0.34 0 0 Z M177 158 C175.27071163 164.91159038 175.27071163 164.91159038 175 172 C180.66864314 172.34011859 185.22101826 172.49681591 190 169 C191.8175397 166.21481845 191.8175397 166.21481845 192 163 C191.00185442 159.89452094 191.00185442 159.89452094 188 158 C184.29687269 157.58027682 180.7100143 157.71215406 177 158 Z M27 159 C26.67 160.216875 26.34 161.43375 26 162.6875 C25.814375 163.37199219 25.62875 164.05648437 25.4375 164.76171875 C24.84013975 167.43775012 24.84013975 167.43775012 25 172 C30.61 172 36.22 172 42 172 C38.18151809 167.4541882 34.39260151 163.00214804 30 159 C29.01 159 28.02 159 27 159 Z M172 183 C170.68 188.94 169.36 194.88 168 201 C176.12705169 201.73741524 176.12705169 201.73741524 183.625 199.25 C186.54697955 196.54804982 186.54697955 196.54804982 188 193 C187.86299344 189.64333934 187.76193476 187.73735622 185.3046875 185.359375 C181.17331668 182.92256645 176.71833819 183.28085346 172 183 Z " fill="#385A00" transform="translate(90,72)"/>
<path d="M0 0 C13.89770892 4.57945089 13.89770892 4.57945089 27.93554688 2.03979492 C29.23031206 1.56396214 30.52725571 1.09402053 31.82617188 0.62963867 C32.79200195 0.28328369 32.79200195 0.28328369 33.77734375 -0.07006836 C49.00239385 -5.17755062 65.42025948 -6.05304826 81.33837891 -5.97094727 C83.81502576 -5.96018562 86.29095246 -5.97093441 88.76757812 -5.98364258 C97.94631818 -5.99050211 106.65192639 -5.48658107 115.68554688 -3.71020508 C115.68554688 -2.72020508 115.68554688 -1.73020508 115.68554688 -0.71020508 C114.93797119 -0.67056641 114.19039551 -0.63092773 113.42016602 -0.59008789 C78.83263513 1.32073793 42.45006693 5.03039959 12.68554688 24.28979492 C11.69554687 24.28979492 10.70554687 24.28979492 9.68554688 24.28979492 C9.68554688 24.94979492 9.68554688 25.60979492 9.68554688 26.28979492 C8.2107501 27.55390644 6.67837417 28.75119685 5.12304688 29.91479492 C-6.6448335 39.1229951 -12.40917232 48.97770437 -16.31445312 63.28979492 C-16.97445312 63.28979492 -17.63445312 63.28979492 -18.31445312 63.28979492 C-18.29382813 64.42416992 -18.27320313 65.55854492 -18.25195312 66.72729492 C-18.31445312 70.28979492 -18.31445312 70.28979492 -19.31445312 71.28979492 C-20.00004043 76.58021371 -20.37480649 81.91107327 -20.81445312 87.22729492 C-20.91632935 88.42737686 -20.91632935 88.42737686 -21.02026367 89.65170288 C-22.14260342 102.99841444 -22.74598575 116.31229399 -22.84765625 129.70556641 C-23.14396814 149.02438507 -28.64990658 166.11968433 -37.31445312 183.28979492 C-37.97445312 183.28979492 -38.63445312 183.28979492 -39.31445312 183.28979492 C-39.54132813 183.84666992 -39.76820313 184.40354492 -40.00195312 184.97729492 C-41.7041008 187.97631702 -43.79123075 189.93478737 -46.31445312 192.28979492 C-46.7965625 192.75385742 -47.27867187 193.21791992 -47.77539062 193.69604492 C-57.09216648 202.2402101 -68.26801623 206.98846635 -80.31445312 210.28979492 C-81.5898999 210.6836438 -81.5898999 210.6836438 -82.89111328 211.08544922 C-92.81010859 213.82398614 -102.59527192 213.71266397 -112.81933594 213.62597656 C-115.83620415 213.60212294 -118.85220032 213.60546801 -121.86914062 213.61206055 C-123.79883337 213.60649051 -125.72852244 213.5993849 -127.65820312 213.59057617 C-128.55406128 213.59148758 -129.44991943 213.59239899 -130.3729248 213.59333801 C-134.79152634 213.54311216 -138.29797403 213.36783682 -142.31445312 211.28979492 C-141.31445312 209.28979492 -141.31445312 209.28979492 -138.43945312 208.22729492 C-134.20706578 207.0986583 -129.93037639 206.82682522 -125.57226562 206.53588867 C-123.34780028 206.53191712 -123.34780028 206.53191712 -122.31445312 205.28979492 C-120.71361852 205.12760905 -119.10808585 205.01130075 -117.50195312 204.91479492 C-111.20968656 204.38773651 -105.38727382 202.96791018 -99.31445312 201.28979492 C-98.22261719 201.01264648 -97.13078125 200.73549805 -96.00585938 200.44995117 C-83.63196272 197.17739962 -71.0805333 192.79504636 -61.31445312 184.28979492 C-60.59128906 183.77674805 -59.868125 183.26370117 -59.12304688 182.73510742 C-53.88475262 178.7465585 -50.81823088 174.29202242 -47.93945312 168.47729492 C-47.61783203 167.85749756 -47.29621094 167.2377002 -46.96484375 166.59912109 C-40.0281655 151.45905088 -40.61253377 132.51694841 -39.75195312 116.22729492 C-38.47132877 92.71355767 -38.47132877 92.71355767 -37.36914062 82.31713867 C-37.29872055 81.62087875 -37.22830048 80.92461884 -37.15574646 80.20726013 C-35.80771235 68.38677887 -31.20745857 57.04268713 -26.31445312 46.28979492 C-25.63769531 44.77772461 -25.63769531 44.77772461 -24.94726562 43.23510742 C-20.30854058 33.38095097 -14.33354528 25.54604215 -5.88085938 18.66479492 C-4.18972771 17.35464723 -4.18972771 17.35464723 -3.31445312 15.28979492 C-17.47895084 9.31162288 -31.60963697 6.79386988 -46.31445312 12.28979492 C-53.68487249 15.93312722 -59.86827233 19.74485989 -64.26367188 26.82104492 C-64.78380859 27.54807617 -64.78380859 27.54807617 -65.31445312 28.28979492 C-65.97445312 28.28979492 -66.63445312 28.28979492 -67.31445312 28.28979492 C-67.42917969 28.84151367 -67.54390625 29.39323242 -67.66210938 29.96166992 C-68.4187226 32.66191833 -69.53571954 35.0134937 -70.75195312 37.53979492 C-74.46545929 45.68382429 -75.56839084 52.7864885 -75.97363281 61.65576172 C-76.12922516 64.98134761 -76.31954454 68.09950954 -77.31445312 71.28979492 C-78.30445313 71.28979492 -79.29445313 71.28979492 -80.31445312 71.28979492 C-80.31445312 70.62979492 -80.31445312 69.96979492 -80.31445312 69.28979492 C-80.97445312 69.28979492 -81.63445312 69.28979492 -82.31445312 69.28979492 C-83.2689311 67.89216647 -84.21278828 66.48599653 -85.09912109 65.04418945 C-86.39993595 63.16639605 -87.87753574 61.75015207 -89.50976562 60.15698242 C-91.31836445 58.0639936 -92.24297556 56.86906104 -92.58398438 54.10546875 C-92.37303511 51.66585081 -91.96717147 49.36834742 -91.43945312 46.97729492 C-91.27453369 46.13134766 -91.10961426 45.28540039 -90.93969727 44.41381836 C-88.40157427 32.03912756 -82.96249867 22.2828858 -75.31445312 12.28979492 C-74.65445313 12.28979492 -73.99445313 12.28979492 -73.31445312 12.28979492 C-72.81945312 10.80479492 -72.81945312 10.80479492 -72.31445312 9.28979492 C-50.36106852 -9.75506504 -26.08197139 -8.48284836 0 0 Z " fill="#385B00" transform="translate(341.314453125,107.710205078125)"/>
<path d="M0 0 C0.79019531 -0.020625 1.58039063 -0.04125 2.39453125 -0.0625 C7.41448096 -0.09591065 10.72573739 0.5623476 15.125 3.25 C13.38240319 12.84453303 13.38240319 12.84453303 10.125 16.25 C9.361875 15.92 8.59875 15.59 7.8125 15.25 C2.35321154 13.76951499 -4.02047119 12.775001 -9.2109375 15.45703125 C-11.08252071 17.16165655 -11.08252071 17.16165655 -11.3828125 19.74609375 C-11.10447594 22.35256199 -11.10447594 22.35256199 -9.1171875 23.91015625 C-8.33601563 24.37292969 -7.55484375 24.83570313 -6.75 25.3125 C-5.92628906 25.82039063 -5.10257812 26.32828125 -4.25390625 26.8515625 C-3.46886719 27.31304687 -2.68382812 27.77453125 -1.875 28.25 C3.51886242 31.52862226 8.25719931 35.51439861 11.125 41.25 C11.72510513 47.64456289 11.90775737 53.83238954 8.58984375 59.5 C4.03880428 64.93697516 -2.91927198 68.73192739 -9.97216797 69.46923828 C-12.36078119 69.59077938 -14.73332256 69.62877944 -17.125 69.625 C-18.38437378 69.62693359 -18.38437378 69.62693359 -19.66918945 69.62890625 C-26.02951217 69.52055112 -31.29476953 68.46329467 -36.875 65.25 C-36.42054036 63.83208592 -35.96125056 62.41571954 -35.5 61 C-35.24476563 60.21109375 -34.98953125 59.4221875 -34.7265625 58.609375 C-33.92326333 56.38372042 -32.97788338 54.34068328 -31.875 52.25 C-30.658125 52.745 -29.44125 53.24 -28.1875 53.75 C-22.23820071 55.73309976 -16.08250817 56.09761156 -9.875 55.25 C-7.48857595 53.9848398 -7.48857595 53.9848398 -5.875 52.25 C-5.875 51.59 -5.875 50.93 -5.875 50.25 C-8.48113206 48.43360493 -11.06710137 47.17143485 -14.0078125 45.96875 C-18.45427338 44.081647 -22.54379919 41.65647004 -26.6875 39.1875 C-27.44998047 38.74083984 -28.21246094 38.29417969 -28.99804688 37.83398438 C-34.61135349 34.51364651 -34.61135349 34.51364651 -36.875 32.25 C-37.865 34.56 -38.855 36.87 -39.875 39.25 C-47.795 39.25 -55.715 39.25 -63.875 39.25 C-64.205 42.55 -64.535 45.85 -64.875 49.25 C-65.205 50.9 -65.535 52.55 -65.875 54.25 C-53.005 54.745 -53.005 54.745 -39.875 55.25 C-40.875 64.25 -40.875 64.25 -41.875 68.25 C-55.735 68.25 -69.595 68.25 -83.875 68.25 C-82.75 57 -82.75 57 -81.75170898 51.88232422 C-81.53155624 50.74189667 -81.3114035 49.60146912 -81.08457947 48.42648315 C-80.84912918 47.23129059 -80.61367889 46.03609802 -80.37109375 44.8046875 C-80.1283522 43.55366241 -79.88561066 42.30263733 -79.63551331 41.01370239 C-78.99596357 37.72192463 -78.352541 34.43095442 -77.70715332 31.14031982 C-77.04689467 27.76867114 -76.39179546 24.39602033 -75.73632812 21.0234375 C-74.45472818 14.43119511 -73.16466743 7.84068926 -71.875 1.25 C-58.345 1.25 -44.815 1.25 -30.875 1.25 C-31.535 5.87 -32.195 10.49 -32.875 15.25 C-31.555 16.57 -30.235 17.89 -28.875 19.25 C-28.63265625 18.65832031 -28.3903125 18.06664062 -28.140625 17.45703125 C-25.00667845 10.06814956 -22.24499499 5.55913824 -14.875 2.046875 C-9.92811508 0.07585054 -5.2593272 0.03398596 0 0 Z M-58.875 14.25 C-59.205 15.466875 -59.535 16.68375 -59.875 17.9375 C-60.060625 18.62199219 -60.24625 19.30648437 -60.4375 20.01171875 C-61.03486025 22.68775012 -61.03486025 22.68775012 -60.875 27.25 C-55.265 27.25 -49.655 27.25 -43.875 27.25 C-47.69348191 22.7041882 -51.48239849 18.25214804 -55.875 14.25 C-56.865 14.25 -57.855 14.25 -58.875 14.25 Z " fill="#4F0000" transform="translate(175.875,216.75)"/>
<path d="M0 0 C1.03833984 -0.020625 2.07667969 -0.04125 3.14648438 -0.0625 C13.70747899 -0.11547051 22.4970056 1.81442546 30.3125 9.25 C36.66927861 17.27961509 37.01210938 25.34615476 36.3125 35.25 C34.3488513 46.44893396 28.31201986 54.7131908 19.25 61.375 C9.4070233 67.59172835 -1.49062099 67.68335027 -12.8125 67.5 C-14.12476563 67.49484375 -15.43703125 67.4896875 -16.7890625 67.484375 C-26.37723214 67.40513393 -26.37723214 67.40513393 -28.6875 66.25 C-27.98862449 58.76403493 -26.65593998 51.49050797 -25.18359375 44.12109375 C-24.9408522 42.89084976 -24.69811066 41.66060577 -24.44801331 40.39308167 C-23.80789471 37.15236618 -23.16457849 33.91230803 -22.51965332 30.67254639 C-21.85998264 27.35450286 -21.20459599 24.03561352 -20.54882812 20.71679688 C-19.26562864 14.22708531 -17.97820384 7.73822299 -16.6875 1.25 C-11.08545769 0.07545906 -5.71225494 0.02784768 0 0 Z M-3.6875 12.25 C-4.82921405 18.05194183 -5.96848509 23.85435588 -7.10546875 29.65722656 C-7.49281337 31.6322942 -7.88083189 33.60722979 -8.26953125 35.58203125 C-8.82728365 38.41632408 -9.38263141 41.25107889 -9.9375 44.0859375 C-10.11249023 44.97243988 -10.28748047 45.85894226 -10.46777344 46.77230835 C-10.70802246 48.003358 -10.70802246 48.003358 -10.953125 49.25927734 C-11.09524414 49.98319672 -11.23736328 50.70711609 -11.38378906 51.45297241 C-11.74304806 53.27492044 -11.74304806 53.27492044 -11.6875 55.25 C-2.17180509 55.82963624 4.83444743 55.14395876 12.1875 48.75 C18.24889859 41.61894283 20.15056347 35.628824 20.3125 26.25 C19.55206596 20.45169048 17.44796804 17.95338023 13.06640625 14.4140625 C9.47855105 12.03281339 6.30071043 12.14259989 2.125 12.1875 C1.03832031 12.19652344 -0.04835938 12.20554688 -1.16796875 12.21484375 C-1.99941406 12.22644531 -2.83085937 12.23804688 -3.6875 12.25 Z " fill="#500000" transform="translate(399.6875,217.75)"/>
<path d="M0 0 C1.51110352 -0.0309375 1.51110352 -0.0309375 3.05273438 -0.0625 C10.66411812 -0.10216845 16.61504024 0.57829586 22.5625 5.75 C26.28648533 10.13115921 27.08704072 12.46081371 26.93359375 18.0390625 C26.42031239 22.65044743 24.01890363 25.07467176 20.625 27.9375 C19.655625 28.700625 18.68625 29.46375 17.6875 30.25 C17.0275 30.91 16.3675 31.57 15.6875 32.25 C16.63625 32.930625 17.585 33.61125 18.5625 34.3125 C22.02208053 37.22410914 22.9967754 39.72191653 23.6875 44.25 C23.58394137 50.77419371 21.82372119 55.1896095 17.6875 60.25 C9.01801683 67.88740184 -2.9597481 67.68239585 -13.875 67.5 C-15.14408203 67.49484375 -16.41316406 67.4896875 -17.72070312 67.484375 C-27.0023255 67.40508725 -27.0023255 67.40508725 -29.3125 66.25 C-25.45826987 44.47926774 -20.94015109 22.8669777 -16.3125 1.25 C-10.85526245 0.02596964 -5.57151356 0.02819235 0 0 Z M-3.3125 12.25 C-5.04178837 19.16159038 -5.04178837 19.16159038 -5.3125 26.25 C0.35614314 26.59011859 4.90851826 26.74681591 9.6875 23.25 C11.5050397 20.46481845 11.5050397 20.46481845 11.6875 17.25 C10.68935442 14.14452094 10.68935442 14.14452094 7.6875 12.25 C3.98437269 11.83027682 0.3975143 11.96215406 -3.3125 12.25 Z M-8.3125 37.25 C-9.6325 43.19 -10.9525 49.13 -12.3125 55.25 C-4.18544831 55.98741524 -4.18544831 55.98741524 3.3125 53.5 C6.23447955 50.79804982 6.23447955 50.79804982 7.6875 47.25 C7.55049344 43.89333934 7.44943476 41.98735622 4.9921875 39.609375 C0.86081668 37.17256645 -3.59416181 37.53085346 -8.3125 37.25 Z " fill="#500000" transform="translate(64.3125,217.75)"/>
<path d="M0 0 C1.01191406 -0.020625 2.02382813 -0.04125 3.06640625 -0.0625 C10.69740858 -0.10209015 16.66167299 0.56449825 22.625 5.75 C26.34898533 10.13115921 27.14954072 12.46081371 26.99609375 18.0390625 C26.48281239 22.65044743 24.08140363 25.07467176 20.6875 27.9375 C19.718125 28.700625 18.74875 29.46375 17.75 30.25 C17.09 30.91 16.43 31.57 15.75 32.25 C16.69875 32.930625 17.6475 33.61125 18.625 34.3125 C22.08458053 37.22410914 23.0592754 39.72191653 23.75 44.25 C23.64644137 50.77419371 21.88622119 55.1896095 17.75 60.25 C9.08051683 67.88740184 -2.8972481 67.68239585 -13.8125 67.5 C-15.08158203 67.49484375 -16.35066406 67.4896875 -17.65820312 67.484375 C-26.9398255 67.40508725 -26.9398255 67.40508725 -29.25 66.25 C-26.66308445 51.83225731 -23.94572679 37.44360489 -21.025177 23.08978271 C-20.71746702 21.57524315 -20.41169134 20.06030927 -20.10787964 18.54498291 C-19.67800579 16.40505532 -19.2405097 14.26682775 -18.80078125 12.12890625 C-18.54981689 10.8972876 -18.29885254 9.66566895 -18.0402832 8.39672852 C-16.79467871 3.43701388 -16.79467871 3.43701388 -15.25 1.25 C-10.59942393 -0.65102054 -4.9398365 0.02479215 0 0 Z M-3.25 12.25 C-4.97928837 19.16159038 -4.97928837 19.16159038 -5.25 26.25 C0.41864314 26.59011859 4.97101826 26.74681591 9.75 23.25 C11.5675397 20.46481845 11.5675397 20.46481845 11.75 17.25 C10.75185442 14.14452094 10.75185442 14.14452094 7.75 12.25 C4.04687269 11.83027682 0.4600143 11.96215406 -3.25 12.25 Z M-8.25 37.25 C-9.57 43.19 -10.89 49.13 -12.25 55.25 C-4.12294831 55.98741524 -4.12294831 55.98741524 3.375 53.5 C6.29697955 50.79804982 6.29697955 50.79804982 7.75 47.25 C7.61299344 43.89333934 7.51193476 41.98735622 5.0546875 39.609375 C0.92331668 37.17256645 -3.53166181 37.53085346 -8.25 37.25 Z " fill="#4F0000" transform="translate(270.25,217.75)"/>
<path d="M0 0 C1.04671875 -0.02900391 2.0934375 -0.05800781 3.171875 -0.08789062 C11.6042414 -0.1564036 17.82969762 1.31973541 24.25 6.9375 C27.85616298 11.21981854 27.65150496 14.72433575 27.5859375 20.19921875 C27.08025205 24.88562924 25.5219259 27.94731256 22.25 31.3125 C19.70116003 33.23944187 17.08754675 34.84795974 14.25 36.3125 C14.70375 36.8075 15.1575 37.3025 15.625 37.8125 C19.48552844 43.75177452 19.72876434 51.41578824 20.375 58.3125 C20.46136719 59.18261719 20.54773438 60.05273438 20.63671875 60.94921875 C20.84644607 63.06979499 21.04897842 65.19108079 21.25 67.3125 C15.97 67.3125 10.69 67.3125 5.25 67.3125 C5.07984375 65.84296875 4.9096875 64.3734375 4.734375 62.859375 C4.49047923 60.92697005 4.2456381 58.99468425 4 57.0625 C3.89042969 56.09441406 3.78085937 55.12632812 3.66796875 54.12890625 C2.95364141 48.63068301 2.95364141 48.63068301 0.578125 43.703125 C-2.48755268 41.8719484 -5.22134566 41.58393495 -8.75 41.3125 C-8.86593506 41.99352783 -8.98187012 42.67455566 -9.10131836 43.3762207 C-9.62761516 46.45956773 -10.15751507 49.54228486 -10.6875 52.625 C-10.86990234 53.69685547 -11.05230469 54.76871094 -11.24023438 55.87304688 C-11.41748047 56.90107422 -11.59472656 57.92910156 -11.77734375 58.98828125 C-11.93968506 59.93614502 -12.10202637 60.88400879 -12.26928711 61.8605957 C-12.75 64.3125 -12.75 64.3125 -13.75 67.3125 C-18.7 67.3125 -23.65 67.3125 -28.75 67.3125 C-28.04220615 59.7591776 -26.70570704 52.40612769 -25.24609375 44.96484375 C-25.0033522 43.71240372 -24.76061066 42.45996368 -24.51051331 41.16957092 C-23.8702891 37.8696983 -23.22699418 34.57045574 -22.58215332 31.27148438 C-21.92259063 27.89308718 -21.26714216 24.51389212 -20.61132812 21.13476562 C-19.32797478 14.52660871 -18.0405615 7.91925274 -16.75 1.3125 C-11.13251667 0.13660686 -5.72828636 0.05213853 0 0 Z M-3.75 12.3125 C-4.25354867 14.74931587 -4.75296756 17.18685439 -5.25 19.625 C-5.39308594 20.31529297 -5.53617187 21.00558594 -5.68359375 21.71679688 C-6.27625044 24.63774773 -6.75 27.32358122 -6.75 30.3125 C-1.16792907 30.66137943 3.25961637 29.94850399 8.25 27.3125 C11.01321026 24.63842555 11.96294559 22.13989211 12.25 18.3125 C11.43927704 15.73292693 10.78846223 14.65188711 8.49609375 13.20703125 C5.84154252 12.14982737 3.8468968 12.11258166 1 12.1875 C-0.33804688 12.21457031 -0.33804688 12.21457031 -1.703125 12.2421875 C-2.37859375 12.26539063 -3.0540625 12.28859375 -3.75 12.3125 Z " fill="#500000" transform="translate(514.75,217.6875)"/>
<path d="M0 0 C1.04671875 -0.02900391 2.0934375 -0.05800781 3.171875 -0.08789062 C11.6042414 -0.1564036 17.82969762 1.31973541 24.25 6.9375 C27.85616298 11.21981854 27.65150496 14.72433575 27.5859375 20.19921875 C27.08025205 24.88562924 25.5219259 27.94731256 22.25 31.3125 C19.70116003 33.23944187 17.08754675 34.84795974 14.25 36.3125 C14.70375 36.8075 15.1575 37.3025 15.625 37.8125 C19.48552844 43.75177452 19.72876434 51.41578824 20.375 58.3125 C20.46136719 59.18261719 20.54773438 60.05273438 20.63671875 60.94921875 C20.84644607 63.06979499 21.04897842 65.19108079 21.25 67.3125 C15.97 67.3125 10.69 67.3125 5.25 67.3125 C5.07984375 65.84296875 4.9096875 64.3734375 4.734375 62.859375 C4.49047923 60.92697005 4.2456381 58.99468425 4 57.0625 C3.89042969 56.09441406 3.78085937 55.12632812 3.66796875 54.12890625 C2.95364141 48.63068301 2.95364141 48.63068301 0.578125 43.703125 C-2.48755268 41.8719484 -5.22134566 41.58393495 -8.75 41.3125 C-8.86593506 41.99352783 -8.98187012 42.67455566 -9.10131836 43.3762207 C-9.62761516 46.45956773 -10.15751507 49.54228486 -10.6875 52.625 C-10.86990234 53.69685547 -11.05230469 54.76871094 -11.24023438 55.87304688 C-11.41748047 56.90107422 -11.59472656 57.92910156 -11.77734375 58.98828125 C-11.93968506 59.93614502 -12.10202637 60.88400879 -12.26928711 61.8605957 C-12.75 64.3125 -12.75 64.3125 -13.75 67.3125 C-18.7 67.3125 -23.65 67.3125 -28.75 67.3125 C-28.04220615 59.7591776 -26.70570704 52.40612769 -25.24609375 44.96484375 C-25.0033522 43.71240372 -24.76061066 42.45996368 -24.51051331 41.16957092 C-23.8702891 37.8696983 -23.22699418 34.57045574 -22.58215332 31.27148438 C-21.92259063 27.89308718 -21.26714216 24.51389212 -20.61132812 21.13476562 C-19.32797478 14.52660871 -18.0405615 7.91925274 -16.75 1.3125 C-11.13251667 0.13660686 -5.72828636 0.05213853 0 0 Z M-3.75 12.3125 C-4.25354867 14.74931587 -4.75296756 17.18685439 -5.25 19.625 C-5.39308594 20.31529297 -5.53617187 21.00558594 -5.68359375 21.71679688 C-6.27625044 24.63774773 -6.75 27.32358122 -6.75 30.3125 C-1.16792907 30.66137943 3.25961637 29.94850399 8.25 27.3125 C11.01321026 24.63842555 11.96294559 22.13989211 12.25 18.3125 C11.43927704 15.73292693 10.78846223 14.65188711 8.49609375 13.20703125 C5.84154252 12.14982737 3.8468968 12.11258166 1 12.1875 C-0.33804687 12.21457031 -0.33804687 12.21457031 -1.703125 12.2421875 C-2.37859375 12.26539063 -3.0540625 12.28859375 -3.75 12.3125 Z " fill="#500000" transform="translate(342.75,217.6875)"/>
<path d="M0 0 C13.53 0 27.06 0 41 0 C40.34 4.29 39.68 8.58 39 13 C30.42 13 21.84 13 13 13 C12.67 15.64 12.34 18.28 12 21 C11.67 22.65 11.34 24.3 11 26 C18.59 26 26.18 26 34 26 C33 37 33 37 32 38 C30.21928754 38.08726223 28.4351686 38.10699041 26.65234375 38.09765625 C25.57275391 38.09443359 24.49316406 38.09121094 23.38085938 38.08789062 C22.24455078 38.07951172 21.10824219 38.07113281 19.9375 38.0625 C18.79732422 38.05798828 17.65714844 38.05347656 16.48242188 38.04882812 C13.65489649 38.03699747 10.8274736 38.0205141 8 38 C7.90912109 38.99580078 7.90912109 38.99580078 7.81640625 40.01171875 C7.69072266 41.33623047 7.69072266 41.33623047 7.5625 42.6875 C7.48128906 43.55761719 7.40007812 44.42773438 7.31640625 45.32421875 C7.01156391 47.90220641 6.50910741 50.45446295 6 53 C18.87 53.495 18.87 53.495 32 54 C31 63 31 63 30 67 C16.14 67 2.28 67 -12 67 C-10.875 55.75 -10.875 55.75 -9.87670898 50.63232422 C-9.65655624 49.49189667 -9.4364035 48.35146912 -9.20957947 47.17648315 C-8.97412918 45.98129059 -8.73867889 44.78609802 -8.49609375 43.5546875 C-8.2533522 42.30366241 -8.01061066 41.05263733 -7.76051331 39.76370239 C-7.12096357 36.47192463 -6.477541 33.18095442 -5.83215332 29.89031982 C-5.17189467 26.51867114 -4.51679546 23.14602033 -3.86132812 19.7734375 C-2.57972818 13.18119511 -1.28966743 6.59068926 0 0 Z " fill="#500000" transform="translate(449,218)"/>
<path d="M0 0 C13.53 0 27.06 0 41 0 C40.34 4.29 39.68 8.58 39 13 C30.42 13 21.84 13 13 13 C12.67 15.64 12.34 18.28 12 21 C11.67 22.65 11.34 24.3 11 26 C18.59 26 26.18 26 34 26 C33 37 33 37 32 38 C30.21928754 38.08726223 28.4351686 38.10699041 26.65234375 38.09765625 C25.57275391 38.09443359 24.49316406 38.09121094 23.38085938 38.08789062 C22.24455078 38.07951172 21.10824219 38.07113281 19.9375 38.0625 C18.79732422 38.05798828 17.65714844 38.05347656 16.48242188 38.04882812 C13.65489649 38.03699747 10.8274736 38.0205141 8 38 C7.90912109 38.99580078 7.90912109 38.99580078 7.81640625 40.01171875 C7.69072266 41.33623047 7.69072266 41.33623047 7.5625 42.6875 C7.48128906 43.55761719 7.40007812 44.42773438 7.31640625 45.32421875 C7.01156391 47.90220641 6.50910741 50.45446295 6 53 C18.87 53.495 18.87 53.495 32 54 C31 63 31 63 30 67 C16.14 67 2.28 67 -12 67 C-10.875 55.75 -10.875 55.75 -9.87670898 50.63232422 C-9.65655624 49.49189667 -9.4364035 48.35146912 -9.20957947 47.17648315 C-8.97412918 45.98129059 -8.73867889 44.78609802 -8.49609375 43.5546875 C-8.2533522 42.30366241 -8.01061066 41.05263733 -7.76051331 39.76370239 C-7.12096357 36.47192463 -6.477541 33.18095442 -5.83215332 29.89031982 C-5.17189467 26.51867114 -4.51679546 23.14602033 -3.86132812 19.7734375 C-2.57972818 13.18119511 -1.28966743 6.59068926 0 0 Z " fill="#4F0000" transform="translate(104,218)"/>
<path d="M0 0 C16.83 0 33.66 0 51 0 C50 10 50 10 49 13 C43.06 13 37.12 13 31 13 C30.75507813 14.70542969 30.51015625 16.41085938 30.2578125 18.16796875 C28.75484136 27.93728113 26.79064597 37.61738043 24.875 47.3125 C24.49845514 49.22846793 24.12215126 51.14448323 23.74609375 53.06054688 C22.83350375 57.70758158 21.91766449 62.35396483 21 67 C16.05 67 11.1 67 6 67 C6.60872289 60.11196233 7.55060087 53.40654768 8.84765625 46.6171875 C9.02380966 45.67690704 9.19996307 44.73662659 9.38145447 43.76785278 C9.93785714 40.80280998 10.50007221 37.83890517 11.0625 34.875 C11.44374638 32.84903112 11.8246093 30.82299004 12.20507812 28.796875 C13.13229223 23.86373841 14.06471606 18.9316127 15 14 C9.39 13.67 3.78 13.34 -2 13 C-1.34 8.71 -0.68 4.42 0 0 Z " fill="#500000" transform="translate(197,218)"/>
<path d="M0 0 C19.92416598 -1.29507079 19.92416598 -1.29507079 25.125 3 C28.35438717 6.71868826 29.15138371 10.21688999 30 15 C32.04156034 19.24776265 34.29543352 21.16781721 38.3125 23.5625 C39.77429688 24.45775391 39.77429688 24.45775391 41.265625 25.37109375 C42.83533187 26.30619056 44.40704468 27.23797691 45.984375 28.16015625 C49.46977534 30.2910817 50.90111817 32.04402541 52 36 C51.01 36.495 51.01 36.495 50 37 C48.31243867 36.03567924 46.6502694 35.0268343 45 34 C43.96746094 33.57203125 42.93492187 33.1440625 41.87109375 32.703125 C37.44446268 30.8394025 33.37484304 28.44755085 29.25 26 C28.49589844 25.56171875 27.74179688 25.1234375 26.96484375 24.671875 C26.23910156 24.24390625 25.51335937 23.8159375 24.765625 23.375 C23.78770996 22.79878906 23.78770996 22.79878906 22.79003906 22.2109375 C20.89271544 20.92742343 19.42287087 19.80193686 18 18 C18 16.68 18 15.36 18 14 C17.14148438 14.12117187 16.28296875 14.24234375 15.3984375 14.3671875 C10.61263599 13.8501009 8.79755575 11.54822683 5.625 8.125 C4.80708984 7.29162109 4.80708984 7.29162109 3.97265625 6.44140625 C0 2.30944549 0 2.30944549 0 0 Z " fill="#385900" transform="translate(120,230)"/>
<path d="M0 0 C2.9375 0.8125 2.9375 0.8125 4.9375 3.8125 C5.26252803 6.93276907 5.44901479 8.95997535 3.8125 11.6875 C0.97995644 13.38702613 -0.82596907 13.34091321 -4.0625 12.8125 C-6.5625 10.6875 -6.5625 10.6875 -8.0625 7.8125 C-7.5 4.625 -7.5 4.625 -6.0625 1.8125 C-3.0625 -0.1875 -3.0625 -0.1875 0 0 Z " fill="#385B00" transform="translate(304.0625,122.1875)"/>
</svg>
